<svg xmlns="http://www.w3.org/2000/svg" width="24" height="24" fill="none" viewBox="0 0 24 24" id="mixi">
  <path fill="#FF884D" d="M12 1.25C6.17953 1.25 1.25 5.29546 1.25 10.5263C1.25 15.5309 5.76228 19.4504 11.25 19.7802V22C11.25 22.205 11.3339 22.401 11.4822 22.5426C11.6305 22.6841 11.8302 22.7587 12.035 22.7492C14.9654 22.6124 17.6445 20.7051 19.5564 18.3499C21.4696 15.9932 22.75 13.0245 22.75 10.5263C22.75 5.29546 17.8205 1.25 12 1.25Z"></path>
  <path fill="#ECEFF1" fill-rule="evenodd" d="M8 5.75C8.41421 5.75 8.75 6.08579 8.75 6.5V14.5C8.75 14.9142 8.41421 15.25 8 15.25C7.58579 15.25 7.25 14.9142 7.25 14.5V6.5C7.25 6.08579 7.58579 5.75 8 5.75Z" clip-rule="evenodd"></path>
  <path fill="#ECEFF1" fill-rule="evenodd" d="M11.2502 9.73607C11.2502 8.80684 10.2723 8.20247 9.44115 8.61804L8.33557 9.17082C7.96509 9.35606 7.51459 9.2059 7.32934 8.83541C7.1441 8.46493 7.29427 8.01442 7.66475 7.82918L8.77033 7.27639C10.5988 6.36216 12.7502 7.69177 12.7502 9.73607V14.5C12.7502 14.9142 12.4144 15.25 12.0002 15.25C11.586 15.25 11.2502 14.9142 11.2502 14.5V9.73607Z" clip-rule="evenodd"></path>
  <path fill="#ECEFF1" fill-rule="evenodd" d="M15.2502 9.73607C15.2502 8.80684 14.2723 8.20247 13.4411 8.61804L12.3356 9.17082C11.9651 9.35606 11.5146 9.2059 11.3293 8.83541C11.1441 8.46493 11.2943 8.01442 11.6648 7.82918L12.7703 7.27639C14.5988 6.36216 16.7502 7.69177 16.7502 9.73607V14.5C16.7502 14.9142 16.4144 15.25 16.0002 15.25C15.586 15.25 15.2502 14.9142 15.2502 14.5V9.73607Z" clip-rule="evenodd"></path>
</svg>